<?xml version="1.0" standalone="no"?><!DOCTYPE svg PUBLIC "-//W3C//DTD SVG 1.1//EN" "http://www.w3.org/Graphics/SVG/1.1/DTD/svg11.dtd"><svg t="1778753856391" class="icon" viewBox="0 0 1024 1024" version="1.1" xmlns="http://www.w3.org/2000/svg" p-id="1728" xmlns:xlink="http://www.w3.org/1999/xlink" width="200" height="200"><path d="M394.68211043 341.12174104c54.22434512-43.51825838 75.43825714-45.40173688 131.54607996-13.18434716 52.04347564-44.31130177 84.26086535-42.62608469 128.86955887 6.64173875 69.39130111-31.12695459 93.87651695-19.82608592 115.5860806 53.23304107 19.82608592 66.41738749 39.65217185 132.83477574 58.48695374 199.54955422 44.5095632 158.60868736-41.03999795 291.93911551-204.01042426 315.82954939-91.29912541 13.38260782-176.55129555-3.56869557-251.98955191-61.85738866-89.21738704-68.59825697-115.38781995-171.69390421-69.3913011-274.59129003a64.53390976 64.53390976 0 0 0 0-44.41043209C266.70472603 422.60695421 227.15168452 323.87304667 190.07690422 224.14783435 166.48386131 160.70435893 203.6577727 110.44523147 267.39863907 117.08697023a66.61564891 66.61564891 0 0 1 60.56869212 46.78956299c21.41217267 59.08173569 44.21217143 117.66781975 66.71477923 177.24520783z m-70.28347405 237.219118c-26.07130337 58.48695373-27.4591287 105.0782553-6.04695678 156.42781788 55.81043186 133.92521008 240.68868324 188.34781663 374.91128508 125.20173298 110.72869002-52.34086661 148.69564478-138.78260145 116.47825507-255.95476956-21.21391203-76.33043083-44.41043209-152.06607893-66.31825793-227.9999877-7.03826081-24.68347727-19.82608592-41.733911-47.6817367-33.30782484s-23.49391182 30.7304333-18.93391144 52.43999771c2.47826046 11.20173834 2.97391284 22.89912909 4.46086927 34.2991281l-13.77912989 3.37043491c-9.21913029-23.09738975-18.23999917-46.29391058-27.55825979-69.3913011-10.80521705-26.86434674-24.58434618-50.45738888-59.47825777-42.1304323s-38.46260639 33.90260678-34.79478049 63.74086639a115.5860806 115.5860806 0 0 1-1.58608675 21.70956365 44.21217143 44.21217143 0 0 1-22.10608572-26.07130259c-14.47304295-41.93217164-40.74260696-59.97391015-72.76173526-49.0695628s-41.33738891 38.66086781-28.35130316 80.19651738c4.1634783 12.98608652 9.91304334 25.57565096 12.98608652 38.66086782a89.71303865 89.71303865 0 0 1 0 21.90782507l-9.91304335 2.6765211a404.3530226 404.3530226 0 0 1-17.94260742-36.678259c-32.31652004-85.64869146-62.84869268-172.09042551-96.94956012-257.04520391-6.74086908-16.65391241-24.98086824-36.47999833-41.13912827-39.65217183C219.51864175 130.86610012 192.85255565 169.13044587 211.68733754 218.20000865c53.23304108 138.78260145 107.35825509 276.97042016 160.59129618 415.55476095a295.80520206 295.80520206 0 0 1 9.41739096 40.94086685l-13.87826022 4.26260862z" p-id="1729" fill="#ffffff"></path></svg>